<svg xmlns="http://www.w3.org/2000/svg" xmlns:xlink="http://www.w3.org/1999/xlink" width="500" zoomAndPan="magnify" viewBox="0 0 375 149.999998" height="200" preserveAspectRatio="xMidYMid meet" version="1.0"><defs><g/></defs><rect x="-37.5" width="450" fill="#ffffff" y="-15" height="179.999997" fill-opacity="1"/><rect x="-37.5" width="450" fill="#ffffff" y="-15" height="179.999997" fill-opacity="1"/><g fill="#666666" fill-opacity="1"><g transform="translate(39.810598, 107.468995)"><g><path d="M 6.890625 -68.78125 L 21.6875 -68.78125 L 21.6875 0 L 6.890625 0 Z M 29.921875 -14.5 L 34.640625 -14.5 C 36.359375 -14.5 37.644531 -14.53125 38.5 -14.59375 C 39.351562 -14.664062 40.160156 -14.875 40.921875 -15.21875 C 43.453125 -16.101562 44.71875 -18.054688 44.71875 -21.078125 C 44.71875 -21.347656 44.71875 -21.566406 44.71875 -21.734375 C 44.71875 -21.910156 44.6875 -22.171875 44.625 -22.515625 C 49.550781 -23.128906 53.867188 -25.492188 57.578125 -29.609375 C 58.742188 -26.867188 59.328125 -23.890625 59.328125 -20.671875 C 59.328125 -17.171875 58.519531 -13.878906 56.90625 -10.796875 C 55.289062 -7.710938 53.082031 -5.28125 50.28125 -3.5 C 48.289062 -2.125 46.179688 -1.195312 43.953125 -0.71875 C 41.722656 -0.238281 38.691406 0 34.859375 0 L 29.921875 0 Z M 29.921875 -41.53125 L 34.75 -41.53125 C 36.53125 -41.53125 37.863281 -41.597656 38.75 -41.734375 C 39.644531 -41.878906 40.472656 -42.125 41.234375 -42.46875 C 42.253906 -43.007812 43.070312 -43.757812 43.6875 -44.71875 C 44.3125 -45.675781 44.625 -46.773438 44.625 -48.015625 C 44.625 -50.347656 43.734375 -52.023438 41.953125 -53.046875 C 41.191406 -53.523438 40.347656 -53.832031 39.421875 -53.96875 C 38.503906 -54.113281 37.082031 -54.1875 35.15625 -54.1875 L 29.921875 -54.1875 L 29.921875 -68.78125 L 33.625 -68.78125 C 35.882812 -68.78125 37.867188 -68.710938 39.578125 -68.578125 C 41.296875 -68.441406 42.835938 -68.203125 44.203125 -67.859375 C 45.578125 -67.515625 46.828125 -67.050781 47.953125 -66.46875 C 49.085938 -65.882812 50.203125 -65.148438 51.296875 -64.265625 C 56.515625 -60.210938 59.125 -54.828125 59.125 -48.109375 C 59.125 -44.546875 58.367188 -41.273438 56.859375 -38.296875 C 55.347656 -35.316406 53.222656 -32.832031 50.484375 -30.84375 C 49.523438 -30.15625 48.53125 -29.585938 47.5 -29.140625 C 46.46875 -28.703125 45.332031 -28.328125 44.09375 -28.015625 C 42.863281 -27.703125 41.507812 -27.476562 40.03125 -27.34375 C 38.5625 -27.207031 36.90625 -27.140625 35.0625 -27.140625 L 29.921875 -27.140625 Z M 29.921875 -41.53125 "/></g></g></g><g fill="#666666" fill-opacity="1"><g transform="translate(102.729421, 107.468995)"><g><path d="M 6.890625 -68.78125 L 21.6875 -68.78125 L 21.6875 0 L 6.890625 0 Z M 6.890625 -68.78125 "/></g></g></g><g fill="#666666" fill-opacity="1"><g transform="translate(131.207378, 107.468995)"><g><path d="M 6.890625 -41.640625 L 21.6875 -29.8125 L 21.6875 0 L 6.890625 0 Z M 59.734375 -40.40625 L 40.609375 -25.09375 L 6.890625 -52.328125 L 6.890625 -71.25 L 40.71875 -43.90625 L 74.546875 -71.25 L 74.546875 0 L 59.734375 0 Z M 59.734375 -40.40625 "/></g></g></g><g fill="#0696d7" fill-opacity="1"><g transform="translate(212.638713, 107.468995)"><g><path d="M 19.015625 -46.984375 L 27.25 -30.84375 L 11.40625 0 L -5.140625 0 Z M 46.375 -11.515625 L 25.8125 -11.515625 L 33.109375 -25.90625 L 38.96875 -25.90625 L 23.4375 -55.828125 L 31.765625 -71.859375 L 68.890625 0 L 52.234375 0 Z M 46.375 -11.515625 "/></g></g></g><g fill="#0696d7" fill-opacity="1"><g transform="translate(277.510893, 107.468995)"><g><path d="M 6.890625 -68.78125 L 21.6875 -68.78125 L 21.6875 0 L 6.890625 0 Z M 6.890625 -68.78125 "/></g></g></g></svg>